<svg width="131" height="136" viewBox="0 0 131 136" fill="none" xmlns="http://www.w3.org/2000/svg">
<g filter="url(#filter0_d_106_174)">
<mask id="mask0_106_174" style="mask-type:alpha" maskUnits="userSpaceOnUse" x="11" y="90" width="11" height="16">
<path d="M17.6784 90.2451C17.6784 90.0052 17.3689 89.9086 17.2325 90.106L11.0438 99.0598C10.9316 99.2221 11.0478 99.4436 11.2451 99.4436H14.938V105.755C14.938 105.995 15.2476 106.091 15.384 105.894L21.5726 96.9402C21.6848 96.7779 21.5686 96.5564 21.3714 96.5564H17.6784V90.2451Z" fill="#D9D9D9"/>
</mask>
<g mask="url(#mask0_106_174)">
<path d="M55.0775 34H-22.4609V34.4187H55.0775V34Z" fill="#EBEBEF"/>
<path d="M55.0775 36.0935H-22.4609V36.5122H55.0775V36.0935Z" fill="#EBEBEF"/>
<path d="M-22.4609 38.187H55.0775V38.6056H-22.4609V38.187Z" fill="#EBEBEF"/>
<path d="M55.0775 40.2804H-22.4609V40.6991H55.0775V40.2804Z" fill="#EBEBEF"/>
<path d="M-22.4609 42.3739H55.0775V42.7926H-22.4609V42.3739Z" fill="#EBEBEF"/>
<path d="M55.0775 44.4674H-22.4609V44.8861H55.0775V44.4674Z" fill="#EBEBEF"/>
<path d="M-22.4609 46.5609H55.0775V46.9796H-22.4609V46.5609Z" fill="#EBEBEF"/>
<path d="M55.0775 48.6543H-22.4609V49.073H55.0775V48.6543Z" fill="#EBEBEF"/>
<path d="M-22.4609 50.7478H55.0775V51.1665H-22.4609V50.7478Z" fill="#EBEBEF"/>
<path d="M55.0775 52.8413H-22.4609V53.26H55.0775V52.8413Z" fill="#EBEBEF"/>
<path d="M-22.4609 54.9348H55.0775V55.3535H-22.4609V54.9348Z" fill="#EBEBEF"/>
<path d="M55.0775 57.0282H-22.4609V57.4469H55.0775V57.0282Z" fill="#EBEBEF"/>
<path d="M-22.4609 59.1217H55.0775V59.5404H-22.4609V59.1217Z" fill="#EBEBEF"/>
<path d="M55.0775 61.2152H-22.4609V61.6339H55.0775V61.2152Z" fill="#EBEBEF"/>
<path d="M-22.4609 63.3087H55.0775V63.7274H-22.4609V63.3087Z" fill="#EBEBEF"/>
<path d="M55.0775 65.4021H-22.4609V65.8208H55.0775V65.4021Z" fill="#EBEBEF"/>
<path d="M-22.4609 67.4956H55.0775V67.9143H-22.4609V67.4956Z" fill="#EBEBEF"/>
<path d="M55.0775 69.5891H-22.4609V70.0078H55.0775V69.5891Z" fill="#EBEBEF"/>
<path d="M-22.4609 71.6826H55.0775V72.1013H-22.4609V71.6826Z" fill="#EBEBEF"/>
<path d="M55.0775 73.7761H-22.4609V74.1948H55.0775V73.7761Z" fill="#EBEBEF"/>
<path d="M-22.4609 75.8695H55.0775V76.2882H-22.4609V75.8695Z" fill="#EBEBEF"/>
<path d="M55.0775 77.963H-22.4609V78.3817H55.0775V77.963Z" fill="#EBEBEF"/>
<path d="M-22.4609 80.0565H55.0775V80.4752H-22.4609V80.0565Z" fill="#EBEBEF"/>
<path d="M55.0775 82.15H-22.4609V82.5687H55.0775V82.15Z" fill="#EBEBEF"/>
<path d="M-22.4609 84.2434H55.0775V84.6621H-22.4609V84.2434Z" fill="#EBEBEF"/>
<path d="M55.0775 86.3369H-22.4609V86.7556H55.0775V86.3369Z" fill="#EBEBEF"/>
<path d="M-22.4609 88.4304H55.0775V88.8491H-22.4609V88.4304Z" fill="#EBEBEF"/>
<path d="M55.0775 90.5239H-22.4609V90.9426H55.0775V90.5239Z" fill="#EBEBEF"/>
<path d="M-22.4609 92.6173H55.0775V93.036H-22.4609V92.6173Z" fill="#EBEBEF"/>
<path d="M55.0775 94.7108H-22.4609V95.1295H55.0775V94.7108Z" fill="#EBEBEF"/>
<path d="M-22.4609 96.8043H55.0775V97.223H-22.4609V96.8043Z" fill="#EBEBEF"/>
<path d="M55.0775 98.8978H-22.4609V99.3165H55.0775V98.8978Z" fill="#EBEBEF"/>
<path d="M-22.4609 100.991H55.0775V101.41H-22.4609V100.991Z" fill="#EBEBEF"/>
<path d="M55.0775 103.085H-22.4609V103.503H55.0775V103.085Z" fill="#EBEBEF"/>
<path d="M-22.4609 105.178H55.0775V105.597H-22.4609V105.178Z" fill="#EBEBEF"/>
<path d="M55.0775 107.272H-22.4609V107.69H55.0775V107.272Z" fill="#EBEBEF"/>
<path d="M-22.4609 109.365H55.0775V109.784H-22.4609V109.365Z" fill="#EBEBEF"/>
<path d="M55.0775 111.459H-22.4609V111.877H55.0775V111.459Z" fill="#EBEBEF"/>
<path d="M-22.4609 113.552H55.0775V113.971H-22.4609V113.552Z" fill="#EBEBEF"/>
<path d="M55.0775 115.646H-22.4609V116.064H55.0775V115.646Z" fill="#EBEBEF"/>
<path d="M-22.4609 117.739H55.0775V118.158H-22.4609V117.739Z" fill="#EBEBEF"/>
<path d="M55.0775 119.833H-22.4609V120.251H55.0775V119.833Z" fill="#EBEBEF"/>
<path d="M-22.4609 121.926H55.0775V122.345H-22.4609V121.926Z" fill="#EBEBEF"/>
<path d="M55.0775 124.019H-22.4609V124.438H55.0775V124.019Z" fill="#EBEBEF"/>
<path d="M-22.4609 126.113H55.0775V126.532H-22.4609V126.113Z" fill="#EBEBEF"/>
<path d="M55.0775 128.206H-22.4609V128.625H55.0775V128.206Z" fill="#EBEBEF"/>
<path d="M-22.4609 130.3H55.0775V130.719H-22.4609V130.3Z" fill="#EBEBEF"/>
<path d="M55.0775 132.393H-22.4609V132.812H55.0775V132.393Z" fill="#EBEBEF"/>
<path d="M-22.4609 134.487H55.0775V134.906H-22.4609V134.487Z" fill="#EBEBEF"/>
<path d="M55.0775 136.58H-22.4609V136.999H55.0775V136.58Z" fill="#EBEBEF"/>
<path d="M-22.4609 138.674H55.0775V139.093H-22.4609V138.674Z" fill="#EBEBEF"/>
<path d="M55.0775 140.767H-22.4609V141.186H55.0775V140.767Z" fill="#EBEBEF"/>
<path d="M-22.4609 142.861H55.0775V143.279H-22.4609V142.861Z" fill="#EBEBEF"/>
<path d="M55.0775 144.954H-22.4609V145.373H55.0775V144.954Z" fill="#EBEBEF"/>
<path d="M-22.4609 147.048H55.0775V147.466H-22.4609V147.048Z" fill="#EBEBEF"/>
<path d="M55.0775 149.141H-22.4609V149.56H55.0775V149.141Z" fill="#EBEBEF"/>
<path d="M-22.4609 151.235H55.0775V151.653H-22.4609V151.235Z" fill="#EBEBEF"/>
<path d="M55.0775 153.328H-22.4609V153.747H55.0775V153.328Z" fill="#EBEBEF"/>
<path d="M-22.4609 155.422H55.0775V155.84H-22.4609V155.422Z" fill="#EBEBEF"/>
<path d="M55.0775 157.515H-22.4609V157.934H55.0775V157.515Z" fill="#EBEBEF"/>
<path d="M-22.4609 159.609H55.0775V160.027H-22.4609V159.609Z" fill="#EBEBEF"/>
<path d="M55.0775 161.702H-22.4609V162.121H55.0775V161.702Z" fill="#EBEBEF"/>
<path d="M-22.4609 163.796H55.0775V164.214H-22.4609V163.796Z" fill="#EBEBEF"/>
<path d="M55.0775 165.889H-22.4609V166.308H55.0775V165.889Z" fill="#EBEBEF"/>
</g>
</g>
<defs>
<filter id="filter0_d_106_174" x="0" y="0" width="130.616" height="136" filterUnits="userSpaceOnUse" color-interpolation-filters="sRGB">
<feFlood flood-opacity="0" result="BackgroundImageFix"/>
<feColorMatrix in="SourceAlpha" type="matrix" values="0 0 0 0 0 0 0 0 0 0 0 0 0 0 0 0 0 0 127 0" result="hardAlpha"/>
<feOffset dx="49" dy="-30"/>
<feGaussianBlur stdDeviation="30"/>
<feComposite in2="hardAlpha" operator="out"/>
<feColorMatrix type="matrix" values="0 0 0 0 0.988235 0 0 0 0 1 0 0 0 0 0.447059 0 0 0 0.5 0"/>
<feBlend mode="normal" in2="BackgroundImageFix" result="effect1_dropShadow_106_174"/>
<feBlend mode="normal" in="SourceGraphic" in2="effect1_dropShadow_106_174" result="shape"/>
</filter>
</defs>
</svg>
